<svg width="193" height="30" viewBox="0 0 193 30" fill="none" xmlns="http://www.w3.org/2000/svg">
<path d="M0.565315 24.0609C0.188438 24.0609 0 23.8724 0 23.4955V7.94938C0 7.59345 0.146563 7.41548 0.439689 7.41548H3.54892C3.84205 7.41548 3.98861 7.57251 3.98861 7.88657V9.5197C3.98861 9.64533 4.02002 9.72908 4.08283 9.77095C4.14564 9.79189 4.22939 9.75002 4.33408 9.64533C4.92033 9.12189 5.48565 8.67173 6.03002 8.29485C6.59534 7.91798 7.17112 7.62485 7.75737 7.41548C8.36456 7.18516 9.00316 7.07001 9.67316 7.07001C10.8457 7.07001 11.8088 7.34219 12.5625 7.88657C13.3163 8.43095 13.8397 9.12189 14.1329 9.95939C14.1747 10.0431 14.2376 10.0745 14.3213 10.0536C14.4051 10.0327 14.4888 9.98033 14.5726 9.89658C15.1169 9.3522 15.6927 8.87064 16.2999 8.45189C16.9071 8.03313 17.5352 7.7086 18.1843 7.47829C18.8334 7.22704 19.4824 7.10141 20.1315 7.10141C21.6181 7.10141 22.7906 7.55157 23.649 8.45189C24.5074 9.33126 24.9367 10.5352 24.9367 12.0636V23.4013C24.9367 23.841 24.7168 24.0609 24.2771 24.0609H21.3877C21.1993 24.0609 21.0632 24.019 20.9795 23.9352C20.8957 23.8515 20.8538 23.7049 20.8538 23.4955V12.6917C20.8538 11.8752 20.6445 11.2471 20.2257 10.8074C19.8279 10.3467 19.2207 10.1164 18.4041 10.1164C17.9226 10.1164 17.4619 10.2106 17.0223 10.3991C16.5826 10.5666 16.1848 10.7864 15.8288 11.0586C15.4729 11.3308 15.1588 11.603 14.8866 11.8752C14.7401 12.0217 14.6354 12.1683 14.5726 12.3149C14.5307 12.4405 14.5097 12.5975 14.5097 12.786V23.4013C14.5097 23.841 14.2899 24.0609 13.8502 24.0609H10.9608C10.7933 24.0609 10.6572 24.019 10.5525 23.9352C10.4688 23.8515 10.4269 23.7049 10.4269 23.4955V12.6917C10.4269 11.8752 10.228 11.2471 9.83019 10.8074C9.43238 10.3467 8.81472 10.1164 7.97722 10.1164C7.26534 10.1164 6.60581 10.2944 5.99862 10.6503C5.41237 11.0063 4.77377 11.5402 4.08283 12.2521V23.4327C4.08283 23.8515 3.84205 24.0609 3.36048 24.0609H0.565315Z" fill="#1A181B"/>
<path d="M37.878 22.3335C37.1662 22.9616 36.3915 23.4641 35.554 23.841C34.7165 24.1969 33.7638 24.3749 32.696 24.3749C31.0838 24.3749 29.8171 23.9562 28.8958 23.1187C27.9955 22.2602 27.5454 21.1505 27.5454 19.7896C27.5454 18.638 27.8908 17.6435 28.5818 16.806C29.2727 15.9475 30.2777 15.2775 31.5968 14.796C32.9158 14.3144 34.4966 14.0318 36.3391 13.948L37.9095 13.8538C38.0351 13.8328 38.1502 13.791 38.2549 13.7282C38.3596 13.6653 38.412 13.5502 38.412 13.3827V12.6603C38.412 11.7391 38.1398 11.0272 37.5954 10.5247C37.051 10.0013 36.2973 9.73955 35.3341 9.73955C34.6013 9.73955 33.9104 9.90705 33.2613 10.242C32.6332 10.5561 32.0888 11.0796 31.6282 11.8124C31.5654 11.938 31.4921 12.0217 31.4083 12.0636C31.3455 12.1055 31.2199 12.1055 31.0315 12.0636L28.3933 11.4041C28.2886 11.3622 28.2049 11.2994 28.1421 11.2156C28.1002 11.1319 28.1421 10.9644 28.2677 10.7131C28.833 9.5197 29.7229 8.61939 30.9372 8.0122C32.1726 7.40501 33.701 7.10141 35.5226 7.10141C37.1348 7.10141 38.4329 7.32126 39.417 7.76094C40.422 8.20063 41.1548 8.81829 41.6154 9.61392C42.076 10.3886 42.3063 11.3099 42.3063 12.3777V23.4327C42.3063 23.663 42.2645 23.8305 42.1807 23.9352C42.1179 24.019 41.9818 24.0609 41.7724 24.0609H39.1029C38.9145 24.0609 38.7784 23.9876 38.6946 23.841C38.6109 23.6944 38.5585 23.5165 38.5376 23.3071L38.4748 22.3649C38.4329 22.009 38.234 21.9985 37.878 22.3335ZM38.412 16.4605C38.412 16.0836 38.2549 15.9057 37.9409 15.9266L36.6532 16.0208C35.9832 16.0627 35.3341 16.1674 34.706 16.3349C34.0988 16.4814 33.5544 16.6908 33.0729 16.963C32.6122 17.2143 32.2354 17.5388 31.9422 17.9366C31.6701 18.3135 31.534 18.7636 31.534 19.2871C31.534 19.999 31.7852 20.5643 32.2877 20.983C32.8112 21.4018 33.5126 21.6112 34.3919 21.6112C34.9573 21.6112 35.4807 21.5169 35.9623 21.3285C36.4438 21.1401 36.8626 20.8993 37.2185 20.6062C37.5745 20.313 37.8571 20.0094 38.0665 19.6954C38.2968 19.3604 38.412 19.0254 38.412 18.6904V16.4605Z" fill="#1A181B"/>
<path d="M46.7854 24.0609C46.5761 24.0609 46.4295 24.019 46.3457 23.9352C46.262 23.8305 46.2201 23.684 46.2201 23.4955V7.94938C46.2201 7.59345 46.3667 7.41548 46.6598 7.41548H49.7062C49.9994 7.41548 50.1459 7.57251 50.1459 7.88657V9.80236C50.1459 9.92799 50.1878 10.0117 50.2715 10.0536C50.3553 10.0745 50.4495 10.0222 50.5542 9.89658C51.0148 9.28939 51.5069 8.78689 52.0303 8.38907C52.5747 7.97032 53.1191 7.65626 53.6634 7.44688C54.2287 7.21657 54.7731 7.10141 55.2966 7.10141C56.0503 7.10141 56.4272 7.26891 56.4272 7.60391V10.6189C56.4272 10.9121 56.2911 11.0377 56.0189 10.9958C55.7048 10.9121 55.3698 10.8597 55.0139 10.8388C54.6789 10.7969 54.3648 10.776 54.0717 10.776C53.6739 10.776 53.2447 10.8597 52.784 11.0272C52.3444 11.1947 51.9361 11.4355 51.5592 11.7496C51.1823 12.0427 50.8787 12.3672 50.6484 12.7232C50.4181 13.0791 50.3029 13.4455 50.3029 13.8224V23.4327C50.3029 23.8515 50.0622 24.0609 49.5806 24.0609H46.7854Z" fill="#1A181B"/>
<path d="M74.9297 23.4013C75.0344 23.5479 75.0553 23.6944 74.9925 23.841C74.9297 23.9876 74.7831 24.0609 74.5528 24.0609H71.0981C70.9097 24.0609 70.7527 24.019 70.627 23.9352C70.5223 23.8305 70.4281 23.684 70.3444 23.4955L66.5756 16.4605C66.5128 16.3139 66.45 16.2302 66.3872 16.2093C66.3244 16.1883 66.2302 16.2407 66.1045 16.3663L63.4978 18.9416C63.414 19.0254 63.3408 19.1196 63.2779 19.2243C63.2361 19.329 63.2151 19.4755 63.2151 19.664V23.3699C63.2151 23.6212 63.1628 23.7991 63.0581 23.9038C62.9534 24.0085 62.765 24.0609 62.4928 24.0609H59.7604C59.5092 24.0609 59.3417 24.019 59.2579 23.9352C59.1742 23.8305 59.1323 23.684 59.1323 23.4955V1.29123C59.1323 0.935294 59.2893 0.757324 59.6034 0.757324H62.7755C63.0686 0.757324 63.2151 0.924825 63.2151 1.25983V14.7332C63.2151 14.8588 63.2465 14.9425 63.3094 14.9844C63.3722 15.0263 63.4664 14.9739 63.592 14.8274L70.1245 7.85516C70.4177 7.56204 70.6794 7.41548 70.9097 7.41548H73.7677C74.0399 7.41548 74.1969 7.48876 74.2388 7.63532C74.3016 7.78188 74.2388 7.94938 74.0503 8.13782L69.4336 12.786C69.3499 12.8907 69.2975 12.9953 69.2766 13.1C69.2556 13.2047 69.2975 13.3617 69.4022 13.5711L74.9297 23.4013Z" fill="#1A181B"/>
<path d="M79.9143 17.0258C79.9143 17.8843 80.1132 18.659 80.511 19.3499C80.9088 20.0199 81.4532 20.5538 82.1441 20.9516C82.856 21.3285 83.6307 21.5169 84.4682 21.5169C85.3266 21.5169 86.1013 21.339 86.7922 20.983C87.5041 20.6271 88.1741 20.0513 88.8023 19.2557C88.886 19.151 88.9593 19.0986 89.0221 19.0986C89.0849 19.0777 89.1896 19.1091 89.3362 19.1929L91.252 20.0408C91.5241 20.1665 91.5555 20.3549 91.3462 20.6062C90.718 21.5274 90.0376 22.2707 89.3048 22.836C88.5929 23.3804 87.7972 23.7782 86.9179 24.0294C86.0594 24.2598 85.0858 24.3749 83.9971 24.3749C82.4058 24.3749 80.9821 24.019 79.7258 23.3071C78.4696 22.5952 77.475 21.6112 76.7422 20.3549C76.0303 19.0777 75.6744 17.6121 75.6744 15.958C75.6744 14.1364 76.0408 12.5661 76.7736 11.2471C77.5274 9.92799 78.5324 8.91251 79.7886 8.20064C81.0449 7.46782 82.4268 7.10141 83.9343 7.10141C85.5255 7.10141 86.9074 7.44688 88.0799 8.13782C89.2733 8.82876 90.2051 9.8233 90.8751 11.1214C91.5451 12.3986 91.8801 13.9585 91.8801 15.801C91.8801 16.0104 91.8591 16.1779 91.8173 16.3035C91.7963 16.4291 91.6498 16.5024 91.3776 16.5233H80.2597C80.1341 16.5233 80.0399 16.5652 79.9771 16.6489C79.9352 16.7327 79.9143 16.8583 79.9143 17.0258ZM87.3576 14.1993C87.5669 14.1993 87.703 14.1783 87.7658 14.1364C87.8496 14.0736 87.8915 13.948 87.8915 13.7596C87.8915 13.1105 87.7449 12.4719 87.4518 11.8438C87.1587 11.2156 86.7294 10.7027 86.1641 10.3049C85.5988 9.88611 84.9079 9.67673 84.0913 9.67673C83.2538 9.67673 82.521 9.88611 81.8928 10.3049C81.2647 10.7027 80.7832 11.2471 80.4482 11.938C80.1341 12.608 79.9771 13.3617 79.9771 14.1993H87.3576Z" fill="#1A181B"/>
<path d="M100.557 10.2735C100.348 10.2735 100.243 10.3886 100.243 10.6189V19.0044C100.243 19.821 100.411 20.3863 100.746 20.7004C101.081 21.0144 101.604 21.1715 102.316 21.1715H104.169C104.295 21.1715 104.399 21.2133 104.483 21.2971C104.567 21.3808 104.609 21.4855 104.609 21.6112L104.577 23.2443C104.577 23.5793 104.378 23.7887 103.981 23.8724C103.667 23.9143 103.3 23.9562 102.881 23.998C102.463 24.019 102.044 24.0399 101.625 24.0609C101.227 24.0609 100.861 24.0609 100.526 24.0609C99.1231 24.0609 98.0448 23.7363 97.2911 23.0873C96.5373 22.4173 96.1604 21.4122 96.1604 20.0722V10.6817C96.1604 10.4096 96.0348 10.2735 95.7835 10.2735H93.6793C93.3443 10.2735 93.1768 10.1164 93.1768 9.80236V7.82376C93.1768 7.55157 93.3338 7.41548 93.6479 7.41548H95.972C96.1604 7.41548 96.2546 7.31079 96.2546 7.10141L96.6629 2.26483C96.6839 1.92983 96.8304 1.76233 97.1026 1.76233H99.8978C100.191 1.76233 100.337 1.9403 100.337 2.29624V7.10141C100.337 7.28985 100.432 7.38407 100.62 7.38407H104.169C104.483 7.38407 104.64 7.53063 104.64 7.82376V9.80236C104.64 10.1164 104.462 10.2735 104.106 10.2735H100.557Z" fill="#1A181B"/>
<path d="M117.736 11.5297C117.339 11.0063 116.815 10.5666 116.166 10.2106C115.517 9.8547 114.721 9.67673 113.779 9.67673C112.879 9.67673 112.125 9.8547 111.518 10.2106C110.911 10.5666 110.607 11.0691 110.607 11.7181C110.607 12.0322 110.733 12.3358 110.984 12.6289C111.235 12.9221 111.79 13.1838 112.649 13.4141L116.386 14.4191C118.019 14.8169 119.181 15.445 119.872 16.3035C120.584 17.141 120.94 18.0936 120.94 19.1615C120.94 20.2502 120.626 21.1819 119.998 21.9566C119.39 22.7313 118.532 23.328 117.422 23.7468C116.334 24.1655 115.088 24.3749 113.685 24.3749C111.884 24.3749 110.345 24.0504 109.068 23.4013C107.791 22.7313 106.891 21.9043 106.367 20.9202C106.304 20.7946 106.273 20.6794 106.273 20.5747C106.273 20.4491 106.325 20.3444 106.43 20.2607L108.283 19.3185C108.451 19.2138 108.587 19.1719 108.691 19.1929C108.796 19.2138 108.88 19.2661 108.943 19.3499C109.257 19.7896 109.613 20.1874 110.01 20.5433C110.429 20.8993 110.932 21.1819 111.518 21.3913C112.125 21.6007 112.858 21.6949 113.716 21.674C114.365 21.674 114.952 21.5902 115.475 21.4227C116.019 21.2552 116.449 21.0249 116.763 20.7318C117.077 20.4177 117.234 20.0408 117.234 19.6011C117.234 19.1824 117.056 18.816 116.7 18.5019C116.344 18.1879 115.705 17.9157 114.784 17.6854L111.581 16.9316C109.989 16.5547 108.817 15.9894 108.063 15.2357C107.33 14.4819 106.964 13.5397 106.964 12.4091C106.964 11.3622 107.236 10.441 107.781 9.64533C108.346 8.8497 109.141 8.23204 110.167 7.79235C111.193 7.33173 112.408 7.10141 113.811 7.10141C115.36 7.10141 116.7 7.38407 117.831 7.94938C118.961 8.5147 119.788 9.21611 120.312 10.0536C120.395 10.1583 120.448 10.2735 120.469 10.3991C120.511 10.5247 120.458 10.6294 120.312 10.7131L118.364 11.6867C118.239 11.7496 118.124 11.7705 118.019 11.7496C117.914 11.7077 117.82 11.6344 117.736 11.5297Z" fill="#1A181B"/>
<path d="M127.517 7.41548C127.915 7.41548 128.113 7.60391 128.113 7.98079V9.04861C128.113 9.19517 128.155 9.27892 128.239 9.29986C128.323 9.29986 128.417 9.24751 128.522 9.14283C128.836 8.8497 129.192 8.54611 129.59 8.23204C130.008 7.91798 130.511 7.65626 131.097 7.44688C131.683 7.21657 132.395 7.10141 133.233 7.10141C134.489 7.10141 135.609 7.41548 136.593 8.0436C137.577 8.65079 138.362 9.58252 138.949 10.8388C139.535 12.0741 139.828 13.6444 139.828 15.5497C139.828 17.5179 139.535 19.1615 138.949 20.4805C138.362 21.7787 137.546 22.7523 136.499 23.4013C135.473 24.0504 134.29 24.3749 132.95 24.3749C132.092 24.3749 131.306 24.2388 130.595 23.9666C129.883 23.6944 129.244 23.2966 128.679 22.7732C128.469 22.5848 128.323 22.501 128.239 22.5219C128.155 22.5429 128.113 22.6894 128.113 22.9616V28.7404C128.113 29.0754 127.967 29.2429 127.674 29.2429H124.47C124.177 29.2429 124.031 29.0754 124.031 28.7404V8.0436C124.031 7.81329 124.073 7.65626 124.156 7.57251C124.24 7.46782 124.408 7.41548 124.659 7.41548H127.517ZM128.113 19.978C128.595 20.5015 129.108 20.9202 129.652 21.2343C130.218 21.5483 130.846 21.7054 131.537 21.7054C132.374 21.7054 133.097 21.496 133.704 21.0772C134.332 20.6376 134.813 19.9676 135.148 19.0672C135.504 18.146 135.682 16.963 135.682 15.5183C135.682 14.0946 135.504 12.9639 135.148 12.1264C134.813 11.2889 134.332 10.6922 133.704 10.3363C133.097 9.95939 132.416 9.77095 131.662 9.77095C130.971 9.77095 130.354 9.91752 129.809 10.2106C129.286 10.4828 128.867 10.8388 128.553 11.2785C128.26 11.7181 128.113 12.1788 128.113 12.6603V19.978Z" fill="#1A181B"/>
<path d="M152.217 22.3335C151.505 22.9616 150.73 23.4641 149.893 23.841C149.055 24.1969 148.103 24.3749 147.035 24.3749C145.423 24.3749 144.156 23.9562 143.235 23.1187C142.334 22.2602 141.884 21.1505 141.884 19.7896C141.884 18.638 142.23 17.6435 142.921 16.806C143.612 15.9475 144.617 15.2775 145.936 14.796C147.255 14.3144 148.835 14.0318 150.678 13.948L152.248 13.8538C152.374 13.8328 152.489 13.791 152.594 13.7282C152.698 13.6653 152.751 13.5502 152.751 13.3827V12.6603C152.751 11.7391 152.479 11.0272 151.934 10.5247C151.39 10.0013 150.636 9.73955 149.673 9.73955C148.94 9.73955 148.249 9.90705 147.6 10.242C146.972 10.5561 146.428 11.0796 145.967 11.8124C145.904 11.938 145.831 12.0217 145.747 12.0636C145.684 12.1055 145.559 12.1055 145.37 12.0636L142.732 11.4041C142.627 11.3622 142.544 11.2994 142.481 11.2156C142.439 11.1319 142.481 10.9644 142.607 10.7131C143.172 9.5197 144.062 8.61939 145.276 8.0122C146.511 7.40501 148.04 7.10141 149.861 7.10141C151.474 7.10141 152.772 7.32126 153.756 7.76094C154.761 8.20063 155.494 8.81829 155.954 9.61392C156.415 10.3886 156.645 11.3099 156.645 12.3777V23.4327C156.645 23.663 156.603 23.8305 156.52 23.9352C156.457 24.019 156.321 24.0609 156.111 24.0609H153.442C153.253 24.0609 153.117 23.9876 153.033 23.841C152.95 23.6944 152.897 23.5165 152.876 23.3071L152.814 22.3649C152.772 22.009 152.573 21.9985 152.217 22.3335ZM152.751 16.4605C152.751 16.0836 152.594 15.9057 152.28 15.9266L150.992 16.0208C150.322 16.0627 149.673 16.1674 149.045 16.3349C148.438 16.4814 147.893 16.6908 147.412 16.963C146.951 17.2143 146.574 17.5388 146.281 17.9366C146.009 18.3135 145.873 18.7636 145.873 19.2871C145.873 19.999 146.124 20.5643 146.627 20.983C147.15 21.4018 147.851 21.6112 148.731 21.6112C149.296 21.6112 149.82 21.5169 150.301 21.3285C150.783 21.1401 151.201 20.8993 151.557 20.6062C151.913 20.313 152.196 20.0094 152.405 19.6954C152.636 19.3604 152.751 19.0254 152.751 18.6904V16.4605Z" fill="#1A181B"/>
<path d="M167.908 7.10141C169.164 7.10141 170.253 7.32126 171.174 7.76094C172.096 8.1797 172.849 8.73454 173.436 9.42548C174.043 10.0955 174.503 10.8074 174.817 11.5611C174.943 11.938 174.838 12.1369 174.503 12.1578L171.74 12.5033C171.53 12.5452 171.384 12.451 171.3 12.2207C171.028 11.76 170.745 11.3517 170.452 10.9958C170.159 10.6399 169.824 10.3572 169.447 10.1478C169.07 9.93845 168.609 9.83377 168.065 9.83377C167.228 9.83377 166.484 10.0641 165.835 10.5247C165.207 10.9644 164.715 11.6239 164.359 12.5033C164.024 13.3827 163.857 14.461 163.857 15.7382C163.857 17.0363 164.035 18.125 164.391 19.0044C164.767 19.8838 165.28 20.5538 165.929 21.0144C166.578 21.4541 167.353 21.674 168.254 21.674C169.196 21.674 169.97 21.4332 170.578 20.9516C171.185 20.4491 171.75 19.7582 172.274 18.8788C172.336 18.7951 172.399 18.7427 172.462 18.7218C172.525 18.7008 172.629 18.7113 172.776 18.7532L174.755 19.2871C174.964 19.3499 175.027 19.5279 174.943 19.821C174.734 20.3026 174.43 20.8155 174.032 21.3599C173.655 21.9043 173.184 22.4068 172.619 22.8674C172.054 23.3071 171.373 23.6735 170.578 23.9666C169.803 24.2388 168.913 24.3749 167.908 24.3749C166.317 24.3749 164.903 24.019 163.668 23.3071C162.433 22.5743 161.459 21.5693 160.747 20.2921C160.056 18.994 159.711 17.4969 159.711 15.801C159.711 14.0841 160.067 12.5766 160.779 11.2785C161.491 9.95939 162.464 8.93345 163.7 8.20064C164.935 7.46782 166.338 7.10141 167.908 7.10141Z" fill="#1A181B"/>
<path d="M181.034 17.0258C181.034 17.8843 181.233 18.659 181.631 19.3499C182.029 20.0199 182.573 20.5538 183.264 20.9516C183.976 21.3285 184.751 21.5169 185.588 21.5169C186.447 21.5169 187.221 21.339 187.912 20.983C188.624 20.6271 189.294 20.0513 189.922 19.2557C190.006 19.151 190.079 19.0986 190.142 19.0986C190.205 19.0777 190.31 19.1091 190.456 19.1929L192.372 20.0408C192.644 20.1665 192.675 20.3549 192.466 20.6062C191.838 21.5274 191.157 22.2707 190.425 22.836C189.713 23.3804 188.917 23.7782 188.038 24.0294C187.179 24.2598 186.206 24.3749 185.117 24.3749C183.526 24.3749 182.102 24.019 180.846 23.3071C179.589 22.5952 178.595 21.6112 177.862 20.3549C177.15 19.0777 176.794 17.6121 176.794 15.958C176.794 14.1364 177.161 12.5661 177.894 11.2471C178.647 9.92799 179.652 8.91251 180.909 8.20064C182.165 7.46782 183.547 7.10141 185.054 7.10141C186.645 7.10141 188.027 7.44688 189.2 8.13782C190.393 8.82876 191.325 9.8233 191.995 11.1214C192.665 12.3986 193 13.9585 193 15.801C193 16.0104 192.979 16.1779 192.937 16.3035C192.916 16.4291 192.77 16.5024 192.498 16.5233H181.38C181.254 16.5233 181.16 16.5652 181.097 16.6489C181.055 16.7327 181.034 16.8583 181.034 17.0258ZM188.477 14.1993C188.687 14.1993 188.823 14.1783 188.886 14.1364C188.97 14.0736 189.011 13.948 189.011 13.7596C189.011 13.1105 188.865 12.4719 188.572 11.8438C188.279 11.2156 187.849 10.7027 187.284 10.3049C186.719 9.88611 186.028 9.67673 185.211 9.67673C184.374 9.67673 183.641 9.88611 183.013 10.3049C182.385 10.7027 181.903 11.2471 181.568 11.938C181.254 12.608 181.097 13.3617 181.097 14.1993H188.477Z" fill="#1A181B"/>
</svg>
